<svg width="20" height="20" viewBox="0 0 20 20" fill="none" xmlns="http://www.w3.org/2000/svg">
<path fill-rule="evenodd" clip-rule="evenodd" d="M9.77341 18.2613C9.8657 18.3096 9.96889 18.3341 10.0721 18.3333C10.1753 18.3324 10.2776 18.3071 10.3707 18.2581L13.344 16.6687C14.1871 16.2192 14.8474 15.7167 15.3625 15.1316C16.4825 13.8568 17.0941 12.2298 17.0832 10.5522L17.0479 5.01828C17.0446 4.38089 16.6259 3.81213 16.0068 3.60539L10.4756 1.7496C10.1426 1.63683 9.77761 1.63928 9.45042 1.75532L3.94021 3.6773C3.32442 3.89222 2.91333 4.46505 2.91669 5.10326L2.95192 10.6331C2.96283 12.3132 3.5954 13.9328 4.73385 15.1945C5.254 15.7714 5.92012 16.2666 6.7725 16.7087L9.77341 18.2613ZM8.98631 11.7574C9.11047 11.8767 9.27155 11.9355 9.43263 11.9339C9.59371 11.9331 9.75395 11.8726 9.87643 11.7517L13.1257 8.54837C13.3698 8.30731 13.3673 7.91997 13.1206 7.68217C12.8732 7.44437 12.4747 7.44601 12.2305 7.68707L9.4234 10.454L8.27404 9.3492C8.02655 9.1114 7.62889 9.11385 7.38392 9.35492C7.13978 9.59598 7.1423 9.98332 7.38979 10.2211L8.98631 11.7574Z" fill="#3669C9"/>
</svg>
