<svg width="15" height="15" viewBox="0 0 15 15" fill="none" xmlns="http://www.w3.org/2000/svg">
<path d="M12.25 13.125L8.3125 9.1875C8 9.4375 7.64062 9.63542 7.23438 9.78125C6.82812 9.92708 6.39583 10 5.9375 10C4.80208 10 3.84125 9.60667 3.055 8.82C2.26875 8.03333 1.87542 7.0725 1.875 5.9375C1.875 4.80208 2.26833 3.84125 3.055 3.055C3.84167 2.26875 4.8025 1.87542 5.9375 1.875C7.07292 1.875 8.03396 2.26833 8.82062 3.055C9.60729 3.84167 10.0004 4.8025 10 5.9375C10 6.39583 9.92708 6.82812 9.78125 7.23438C9.63542 7.64062 9.4375 8 9.1875 8.3125L13.125 12.25L12.25 13.125ZM5.9375 8.75C6.71875 8.75 7.38292 8.47667 7.93 7.93C8.47708 7.38333 8.75042 6.71917 8.75 5.9375C8.75 5.15625 8.47667 4.49229 7.93 3.94563C7.38333 3.39896 6.71917 3.12542 5.9375 3.125C5.15625 3.125 4.49229 3.39854 3.94563 3.94563C3.39896 4.49271 3.12542 5.15667 3.125 5.9375C3.125 6.71875 3.39854 7.38292 3.94563 7.93C4.49271 8.47708 5.15667 8.75042 5.9375 8.75Z" fill="black"/>
</svg>
