<svg width="20" height="20" viewBox="0 0 20 20" fill="none" xmlns="http://www.w3.org/2000/svg">
<g opacity="0.5">
<path fill-rule="evenodd" clip-rule="evenodd" d="M14.7145 5.28616C15.0399 5.61159 15.0399 6.13923 14.7145 6.46467L6.46492 14.7142C6.13948 15.0397 5.61185 15.0397 5.28641 14.7142C4.96097 14.3888 4.96097 13.8612 5.28641 13.5357L13.536 5.28616C13.8614 4.96072 14.3891 4.96072 14.7145 5.28616Z" fill="black"/>
<path fill-rule="evenodd" clip-rule="evenodd" d="M5.2855 5.28616C5.61094 4.96072 6.13857 4.96072 6.46401 5.28616L14.7136 13.5357C15.039 13.8612 15.039 14.3888 14.7136 14.7142C14.3882 15.0397 13.8605 15.0397 13.5351 14.7142L5.2855 6.46467C4.96006 6.13923 4.96006 5.61159 5.2855 5.28616Z" fill="black"/>
</g>
</svg>
