<svg width="14" height="14" viewBox="0 0 14 14" fill="none" xmlns="http://www.w3.org/2000/svg">
<path fill-rule="evenodd" clip-rule="evenodd" d="M6.99998 2.33333C7.64431 2.33333 8.16665 1.811 8.16665 1.16667C8.16665 0.522334 7.64431 0 6.99998 0C6.35565 0 5.83331 0.522334 5.83331 1.16667C5.83331 1.811 6.35565 2.33333 6.99998 2.33333ZM6.99998 8.16667C7.64431 8.16667 8.16665 7.64433 8.16665 7C8.16665 6.35567 7.64431 5.83333 6.99998 5.83333C6.35565 5.83333 5.83331 6.35567 5.83331 7C5.83331 7.64433 6.35565 8.16667 6.99998 8.16667ZM8.16665 12.8333C8.16665 13.4777 7.64431 14 6.99998 14C6.35565 14 5.83331 13.4777 5.83331 12.8333C5.83331 12.189 6.35565 11.6667 6.99998 11.6667C7.64431 11.6667 8.16665 12.189 8.16665 12.8333Z" fill="#838589"/>
</svg>
