<svg width="19" height="16" viewBox="0 0 19 16" fill="none" xmlns="http://www.w3.org/2000/svg">
<path d="M9.5 16C9.28077 16 9.06357 15.9633 8.8484 15.8898C8.63323 15.8163 8.44038 15.7022 8.26987 15.5475L6.73526 14.2132C4.98141 12.6894 3.42041 11.1965 2.05224 9.73459C0.684081 8.27266 0 6.67537 0 4.94271C0 3.53493 0.495299 2.3592 1.4859 1.41552C2.4765 0.471839 3.71068 0 5.18846 0C6.02479 0 6.81848 0.172105 7.56955 0.516316C8.32062 0.860527 8.9641 1.3459 9.5 1.97244C10.0521 1.3459 10.6997 0.860527 11.4426 0.516316C12.1856 0.172105 12.9752 0 13.8115 0C15.2893 0 16.5235 0.471839 17.5141 1.41552C18.5047 2.3592 19 3.53493 19 4.94271C19 6.67537 18.3179 8.27459 16.9538 9.74039C15.5897 11.2062 14.0267 12.6971 12.2647 14.2132L10.7301 15.5475C10.5596 15.7022 10.3668 15.8163 10.1516 15.8898C9.93643 15.9633 9.71923 16 9.5 16Z" fill="#FF0707"/>
</svg>
