<svg width="19" height="16" viewBox="0 0 19 16" fill="none" xmlns="http://www.w3.org/2000/svg">
<path d="M8.43785 15.3623L8.43789 15.3623L8.43391 15.3588L6.89929 14.0245L6.89922 14.0245C5.15087 12.5054 3.59622 11.0185 2.23478 9.56376C0.902732 8.14043 0.25 6.60208 0.25 4.94271C0.25 3.6011 0.718862 2.4915 1.65834 1.59653C2.59852 0.70088 3.76925 0.25 5.18846 0.25C5.98929 0.25 6.74742 0.414541 7.46539 0.743586C8.18357 1.07272 8.79774 1.53602 9.31002 2.13494L9.49718 2.35377L9.68756 2.13773C10.2172 1.53667 10.8369 1.07249 11.5477 0.743153C12.257 0.414534 13.0107 0.25 13.8115 0.25C15.2308 0.25 16.4015 0.70088 17.3417 1.59653C18.2811 2.4915 18.75 3.6011 18.75 4.94271C18.75 6.60237 18.0991 8.14283 16.7708 9.57008C15.4139 11.0281 13.8577 12.5127 12.1017 14.0237L12.1007 14.0245L10.5661 15.3588L10.5661 15.3588L10.5621 15.3623C10.4166 15.4944 10.2533 15.5909 10.0708 15.6532C9.88067 15.7181 9.69073 15.75 9.5 15.75C9.30927 15.75 9.11933 15.7181 8.92919 15.6532C8.7467 15.5909 8.58344 15.4944 8.43785 15.3623Z" stroke="black" stroke-width="0.5"/>
</svg>
