<svg width="20" height="20" viewBox="0 0 20 20" fill="none" xmlns="http://www.w3.org/2000/svg">
<path d="M10.9836 9.41074C11.1399 9.56701 11.2276 9.77893 11.2276 9.99991C11.2276 10.2209 11.1399 10.4328 10.9836 10.5891L7.16281 14.4107C7.01102 14.5679 6.92702 14.7784 6.92892 14.9969C6.93082 15.2154 7.01846 15.4244 7.17297 15.5789C7.32747 15.7334 7.53648 15.8211 7.75498 15.823C7.97348 15.8249 8.18398 15.7409 8.34115 15.5891L12.1595 11.7674C12.6282 11.2986 12.8914 10.6628 12.8914 9.99991C12.8914 9.33699 12.6282 8.70122 12.1595 8.2324L8.33782 4.41074C8.18065 4.25894 7.97014 4.17494 7.75165 4.17684C7.53315 4.17874 7.32414 4.26638 7.16963 4.42089C7.01513 4.5754 6.92748 4.78441 6.92559 5.0029C6.92369 5.2214 7.00768 5.4319 7.15948 5.58907L10.9836 9.41074Z" fill="#838589"/>
</svg>
