<svg width="19" height="11" viewBox="0 0 19 11" fill="none" xmlns="http://www.w3.org/2000/svg">
<path d="M0.558606 5.50023L0.110964 5.27748L0.000114878 5.50024L0.110978 5.723L0.558606 5.50023ZM1.71036 3.76828L2.08895 4.09489L1.71036 3.76828ZM1.88249 3.56876L1.50391 3.24215L1.88249 3.56876ZM16.2147 3.56877L15.8361 3.89538L15.8361 3.89538L16.2147 3.56877ZM16.3868 3.76828L16.7654 3.44167L16.7654 3.44167L16.3868 3.76828ZM17.5383 5.49977L17.986 5.72252L18.0968 5.49975L17.986 5.27699L17.5383 5.49977ZM16.3866 7.23172L16.7652 7.55833L16.7652 7.55833L16.3866 7.23172ZM16.2144 7.43123L15.8359 7.10462L15.8359 7.10462L16.2144 7.43123ZM9.51399 10.5L9.51399 10L9.51399 10.5ZM8.58271 10.5L8.58271 11L8.58271 10.5ZM1.88226 7.43123L2.26084 7.10462L1.88226 7.43123ZM1.71013 7.23172L2.08872 6.90511L1.71013 7.23172ZM1.00625 5.72298C1.29455 5.1436 1.65659 4.59605 2.08895 4.09489L1.33178 3.44167C0.844378 4.00663 0.436101 4.62407 0.110964 5.27748L1.00625 5.72298ZM2.08895 4.09489L2.26107 3.89538L1.50391 3.24215L1.33178 3.44167L2.08895 4.09489ZM2.26107 3.89538C3.84713 2.05694 6.1549 0.999998 8.58294 0.999998L8.58294 -1.73658e-06C5.8641 -1.97427e-06 3.27992 1.18353 1.50391 3.24215L2.26107 3.89538ZM8.58294 0.999998L9.51422 0.999998L9.51422 -1.65516e-06L8.58294 -1.73658e-06L8.58294 0.999998ZM9.51422 0.999998C11.9423 0.999999 14.25 2.05695 15.8361 3.89538L16.5933 3.24215C14.8172 1.18353 12.2331 -1.41748e-06 9.51422 -1.65516e-06L9.51422 0.999998ZM15.8361 3.89538L16.0082 4.09489L16.7654 3.44167L16.5933 3.24215L15.8361 3.89538ZM16.0082 4.09489C16.4405 4.59592 16.8024 5.14332 17.0907 5.72254L17.986 5.27699C17.6609 4.62377 17.2527 4.00649 16.7654 3.44167L16.0082 4.09489ZM16.7652 7.55833C17.2526 6.99337 17.6608 6.37592 17.986 5.72252L17.0907 5.27702C16.8024 5.8564 16.4403 6.40395 16.008 6.90511L16.7652 7.55833ZM16.593 7.75785L16.7652 7.55833L16.008 6.90511L15.8359 7.10462L16.593 7.75785ZM9.51399 11C12.2328 11 14.817 9.81646 16.593 7.75785L15.8359 7.10462C14.2498 8.94305 11.942 10 9.51399 10L9.51399 11ZM8.58271 11L9.51399 11L9.51399 10L8.58271 10L8.58271 11ZM1.50368 7.75784C3.27969 9.81646 5.86386 11 8.58271 11L8.58271 10C6.15467 10 3.84689 8.94305 2.26084 7.10462L1.50368 7.75784ZM1.33155 7.55833L1.50368 7.75784L2.26084 7.10462L2.08872 6.90511L1.33155 7.55833ZM0.110978 5.723C0.436072 6.37622 0.844269 6.99351 1.33155 7.55833L2.08872 6.90511C1.65647 6.40408 1.2945 5.85667 1.00623 5.27745L0.110978 5.723Z" fill="#B8B8B8"/>
</svg>
