<svg width="25" height="12" viewBox="0 0 25 12" fill="none" xmlns="http://www.w3.org/2000/svg">
<path opacity="0.35" d="M0.513809 2.74031C0.513809 1.51065 1.51065 0.513809 2.74031 0.513809H19.8673C21.0969 0.513809 22.0938 1.51065 22.0938 2.74031V8.90602C22.0938 10.1357 21.0969 11.1325 19.8673 11.1325H2.74031C1.51065 11.1325 0.513809 10.1357 0.513809 8.90602V2.74031Z" stroke="#223263"/>
<path opacity="0.4" d="M23.6352 3.76801V7.87848C24.4622 7.53035 24.9999 6.72049 24.9999 5.82325C24.9999 4.926 24.4622 4.11615 23.6352 3.76801Z" fill="#223263"/>
<path d="M2.05523 3.42539C2.05523 2.66868 2.66867 2.05523 3.42539 2.05523H19.1822C19.9389 2.05523 20.5523 2.66867 20.5523 3.42539V8.22094C20.5523 8.97765 19.9389 9.59109 19.1822 9.59109H3.42539C2.66867 9.59109 2.05523 8.97765 2.05523 8.22094V3.42539Z" fill="#223263"/>
</svg>
