<svg width="25" height="25" viewBox="0 0 25 25" fill="none" xmlns="http://www.w3.org/2000/svg">
<g clip-path="url(#clip0_83_770)">
<path d="M22.8125 19.5347L22.5764 19.3264C21.9065 18.7296 21.3202 18.0452 20.8333 17.2917C20.3015 16.2518 19.9828 15.1162 19.8958 13.9514V10.5209C19.9004 8.69142 19.2368 6.92327 18.0297 5.54862C16.8225 4.17397 15.155 3.28743 13.3403 3.05558V2.15975C13.3403 1.91387 13.2426 1.67806 13.0687 1.5042C12.8949 1.33034 12.6591 1.23267 12.4132 1.23267C12.1673 1.23267 11.9315 1.33034 11.7576 1.5042C11.5838 1.67806 11.4861 1.91387 11.4861 2.15975V3.06947C9.68767 3.31803 8.04024 4.20993 6.84896 5.57996C5.65769 6.95 5.00327 8.70534 5.00693 10.5209V13.9514C4.91996 15.1162 4.60122 16.2518 4.06943 17.2917C3.59088 18.0433 3.01401 18.7276 2.35415 19.3264L2.11804 19.5347V21.4931H22.8125V19.5347Z" fill="#1E6474"/>
<path d="M10.6389 22.2222C10.6998 22.6624 10.9179 23.0657 11.253 23.3576C11.5881 23.6495 12.0174 23.8103 12.4618 23.8103C12.9062 23.8103 13.3356 23.6495 13.6707 23.3576C14.0057 23.0657 14.2239 22.6624 14.2847 22.2222H10.6389Z" fill="#1E6474"/>
</g>
<defs>
<clipPath id="clip0_83_770">
<rect width="25" height="25" fill="white"/>
</clipPath>
</defs>
</svg>
