<svg width="24" height="24" viewBox="0 0 24 24" fill="none" xmlns="http://www.w3.org/2000/svg">
<path d="M20.9953 11.442C20.8251 11.18 16.7741 5 11.5412 5C6.30821 5 2.25726 11.18 2.08702 11.442L1.73117 12L2.09183 12.558C2.25726 12.82 6.30821 19 11.5412 19C16.7741 19 20.8251 12.82 20.9953 12.558L21.356 12L20.9953 11.442ZM11.5412 17C8.14518 17 5.13197 13.41 4.0798 12C5.13197 10.59 8.14518 7 11.5412 7C14.9372 7 17.9504 10.59 19.0025 12C17.9504 13.41 14.9372 17 11.5412 17Z" fill="#938E8E"/>
<path d="M11.5412 8C10.7803 8 10.0365 8.2346 9.40387 8.67412C8.77123 9.11365 8.27814 9.73836 7.98696 10.4693C7.69579 11.2002 7.6196 12.0044 7.76804 12.7804C7.91648 13.5563 8.28288 14.269 8.8209 14.8284C9.35892 15.3878 10.0444 15.7688 10.7907 15.9231C11.5369 16.0775 12.3104 15.9983 13.0134 15.6955C13.7163 15.3928 14.3172 14.8801 14.7399 14.2223C15.1626 13.5645 15.3882 12.7911 15.3882 12C15.3882 10.9391 14.9829 9.92172 14.2615 9.17157C13.54 8.42143 12.5615 8 11.5412 8ZM11.5412 14C11.1607 14 10.7889 13.8827 10.4725 13.6629C10.1562 13.4432 9.90966 13.1308 9.76407 12.7654C9.61849 12.3999 9.58039 11.9978 9.65461 11.6098C9.72883 11.2219 9.91203 10.8655 10.181 10.5858C10.4501 10.3061 10.7928 10.1156 11.1659 10.0384C11.539 9.96126 11.9258 10.0009 12.2773 10.1522C12.6288 10.3036 12.9292 10.56 13.1405 10.8889C13.3519 11.2178 13.4647 11.6044 13.4647 12C13.4647 12.5304 13.2621 13.0391 12.9013 13.4142C12.5406 13.7893 12.0513 14 11.5412 14Z" fill="#938E8E"/>
</svg>
