<svg width="20" height="22" viewBox="0 0 20 22" fill="none" xmlns="http://www.w3.org/2000/svg">
<path d="M18.7175 7.63905C18.5901 7.4509 18.4331 7.3 18.2571 7.19643C18.081 7.09286 17.8899 7.03898 17.6965 7.03839H14.6022L10.0394 0.297967C9.9755 0.204319 9.89694 0.129317 9.80893 0.0779429C9.72092 0.0265692 9.62546 0 9.52889 0C9.43233 0 9.33687 0.0265692 9.24885 0.0779429C9.16084 0.129317 9.08229 0.204319 9.01841 0.297967L4.4556 7.03839H1.36125C1.16733 7.03839 0.97564 7.09197 0.79903 7.19554C0.622419 7.29911 0.464959 7.45028 0.337196 7.63892C0.209433 7.82756 0.114315 8.04932 0.0582119 8.28935C0.00210867 8.52938 -0.0136849 8.78214 0.011889 9.0307L1.19109 20.473C1.23481 20.8959 1.39582 21.2839 1.64419 21.5647C1.89255 21.8456 2.21135 22.0003 2.54131 22H16.5165C16.8464 22.0003 17.1652 21.8456 17.4136 21.5647C17.662 21.2839 17.823 20.8959 17.8667 20.473L19.0467 9.0318C19.0719 8.78272 19.0555 8.52956 18.9987 8.28933C18.9419 8.0491 18.846 7.82738 18.7175 7.63905ZM5.5812 18.4796C5.55824 18.4812 5.53524 18.4812 5.51228 18.4796C5.34296 18.4807 5.17941 18.4002 5.05355 18.2537C4.9277 18.1072 4.84858 17.9054 4.83165 17.6875L4.3552 11.5269C4.33715 11.2946 4.39119 11.0626 4.50543 10.8819C4.61967 10.7012 4.78476 10.5865 4.96437 10.5632C5.14399 10.5398 5.32341 10.6097 5.46318 10.7574C5.60295 10.9051 5.69162 11.1186 5.70967 11.3509L6.18611 17.5115C6.20518 17.7436 6.15215 17.976 6.03871 18.1576C5.92527 18.3391 5.7607 18.455 5.5812 18.4796ZM10.2095 17.5995C10.2095 17.8329 10.1378 18.0568 10.0102 18.2218C9.88253 18.3869 9.70941 18.4796 9.52889 18.4796C9.34838 18.4796 9.17525 18.3869 9.04761 18.2218C8.91997 18.0568 8.84825 17.8329 8.84825 17.5995V11.4389C8.84825 11.2054 8.91997 10.9816 9.04761 10.8165C9.17525 10.6515 9.34838 10.5588 9.52889 10.5588C9.70941 10.5588 9.88253 10.6515 10.0102 10.8165C10.1378 10.9816 10.2095 11.2054 10.2095 11.4389V17.5995ZM6.26439 7.03839L9.52889 2.21437L12.7934 7.03839H6.26439ZM14.6983 11.5269L14.2219 17.6875C14.205 17.9044 14.1265 18.1055 14.0016 18.2519C13.8766 18.3982 13.7141 18.4793 13.5455 18.4796C13.5225 18.4812 13.4995 18.4812 13.4766 18.4796C13.3876 18.4681 13.3013 18.434 13.2226 18.3793C13.1439 18.3246 13.0742 18.2504 13.0176 18.1609C12.9611 18.0714 12.9187 17.9684 12.8929 17.8577C12.8671 17.7471 12.8585 17.6309 12.8674 17.5159L13.3439 11.3553C13.3619 11.123 13.4506 10.9095 13.5903 10.7618C13.7301 10.6141 13.9095 10.5442 14.0892 10.5676C14.2688 10.5909 14.4339 10.7056 14.5481 10.8863C14.6623 11.067 14.7164 11.299 14.6983 11.5313V11.5269Z" fill="white"/>
</svg>
