<svg width="18" height="11" viewBox="0 0 18 11" fill="none" xmlns="http://www.w3.org/2000/svg">
<path d="M0.557993 5.50023L0.109942 5.2783L1.18786e-05 5.50024L0.109955 5.72218L0.557993 5.50023ZM1.70411 3.76789L2.08363 4.09341L2.08363 4.09341L1.70411 3.76789ZM1.86229 3.58346L1.48277 3.25794L1.48277 3.25794L1.86229 3.58346ZM16.1361 3.58346L15.7566 3.90898L15.7566 3.90898L16.1361 3.58346ZM16.2943 3.76789L16.6738 3.44238L16.6738 3.44238L16.2943 3.76789ZM17.4402 5.49977L17.8882 5.72169L17.9982 5.49975L17.8882 5.27782L17.4402 5.49977ZM16.2941 7.23211L15.9145 6.90659L15.9145 6.90659L16.2941 7.23211ZM16.1359 7.41654L16.5154 7.74205L16.5154 7.74205L16.1359 7.41654ZM1.86206 7.41654L2.24159 7.09102L2.24159 7.09102L1.86206 7.41654ZM1.70388 7.23211L2.0834 6.90659L2.0834 6.90659L1.70388 7.23211ZM1.00604 5.72215C1.29296 5.14288 1.65329 4.59516 2.08363 4.09341L1.32458 3.44238C0.839612 4.00781 0.433409 4.62525 0.109942 5.2783L1.00604 5.72215ZM2.08363 4.09341L2.24182 3.90897L1.48277 3.25794L1.32458 3.44238L2.08363 4.09341ZM2.24182 3.90898C3.82548 2.06255 6.13666 0.999998 8.56921 0.999998L8.56921 -1.73375e-06C5.84485 -1.97332e-06 3.25641 1.19002 1.48277 3.25794L2.24182 3.90898ZM8.56921 0.999998L9.4292 0.999998L9.4292 -1.65812e-06L8.56921 -1.73375e-06L8.56921 0.999998ZM9.4292 0.999998C11.8617 0.999999 14.1729 2.06255 15.7566 3.90898L16.5156 3.25795C14.742 1.19002 12.1536 -1.41856e-06 9.4292 -1.65812e-06L9.4292 0.999998ZM15.7566 3.90898L15.9148 4.09341L16.6738 3.44238L16.5156 3.25795L15.7566 3.90898ZM15.9148 4.09341C16.345 4.59503 16.7053 5.14261 16.9921 5.72172L17.8882 5.27782C17.5648 4.62494 17.1587 4.00767 16.6738 3.44238L15.9148 4.09341ZM16.6736 7.55762C17.1586 6.99218 17.5648 6.37475 17.8882 5.72169L16.9921 5.27784C16.7052 5.85711 16.3449 6.40484 15.9145 6.90659L16.6736 7.55762ZM16.5154 7.74205L16.6736 7.55762L15.9145 6.90659L15.7564 7.09102L16.5154 7.74205ZM9.42897 11C12.1533 11 14.7418 9.80998 16.5154 7.74205L15.7564 7.09102C14.1727 8.93745 11.8615 10 9.42897 10L9.42897 11ZM8.56898 11L9.42897 11L9.42897 10L8.56898 10L8.56898 11ZM1.48254 7.74205C3.25618 9.80998 5.84462 11 8.56898 11L8.56898 10C6.13643 10 3.82525 8.93745 2.24159 7.09102L1.48254 7.74205ZM1.32435 7.55762L1.48254 7.74205L2.24159 7.09102L2.0834 6.90659L1.32435 7.55762ZM0.109955 5.72218C0.43338 6.37505 0.839499 6.99232 1.32435 7.55762L2.0834 6.90659C1.65316 6.40497 1.29291 5.85738 1.00603 5.27827L0.109955 5.72218Z" fill="#B8B8B8"/>
</svg>
