<svg width="24" height="24" viewBox="0 0 24 24" fill="none" xmlns="http://www.w3.org/2000/svg">
<path d="M9.34948 6.8835L9.35198 6.8845C9.40398 6.663 9.59298 6.5 9.82948 6.5H16.5655C16.574 6.5 16.5825 6.4965 16.591 6.497C16.4475 4.1075 14.443 3 12.6745 3H5.93848C5.70148 3 5.51248 3.1675 5.46098 3.3885L5.45848 3.3875L2.51398 16.9065L2.52048 16.907C2.51348 16.939 2.50098 16.9695 2.50098 17.004C2.50098 17.2805 2.72448 17.4995 3.00098 17.4995H7.03648L9.34948 6.8835Z" fill="#1565C0"/>
<path d="M16.5918 6.49683C16.6183 6.93483 16.5893 7.41133 16.4773 7.93783C15.8368 10.9353 13.5213 12.4953 10.6598 12.4953C10.6598 12.4953 8.92481 12.4953 8.50331 12.4953C8.24281 12.4953 8.11981 12.6483 8.06331 12.7653L7.19331 16.7898L7.04081 17.5043H7.03781L6.40631 20.4023L6.41281 20.4028C6.40581 20.4348 6.39331 20.4653 6.39331 20.4998C6.39331 20.7763 6.61681 20.9998 6.89331 20.9998H10.5598L10.5663 20.9948C10.8023 20.9913 10.9898 20.8228 11.0388 20.6008L11.0478 20.5933L11.9538 16.3853C11.9538 16.3853 12.0168 15.9838 12.4388 15.9838C12.8608 15.9838 14.5278 15.9838 14.5278 15.9838C17.3893 15.9838 19.7283 14.4308 20.3693 11.4328C21.0903 8.05283 18.6793 6.50933 16.5918 6.49683Z" fill="#1E6474"/>
<path d="M9.83 6.49975C9.593 6.49975 9.404 6.66275 9.3525 6.88425L9.35 6.88325L8.0625 12.7658C8.119 12.6488 8.242 12.4958 8.5025 12.4958C8.9245 12.4958 10.62 12.4958 10.62 12.4958C13.4815 12.4958 15.836 10.9358 16.4765 7.93825C16.589 7.41175 16.6175 6.93525 16.591 6.49725C16.583 6.49625 16.574 6.49975 16.566 6.49975H9.83Z" fill="#283593"/>
</svg>
