<svg width="24" height="24" viewBox="0 0 24 24" fill="none" xmlns="http://www.w3.org/2000/svg">
<path d="M10.6 12.707C10.4125 12.5195 10.3072 12.2651 10.3072 12C10.3072 11.7348 10.4125 11.4805 10.6 11.293L15.185 6.70698C15.3672 6.51838 15.468 6.26578 15.4657 6.00358C15.4634 5.74138 15.3582 5.49057 15.1728 5.30516C14.9874 5.11975 14.7366 5.01458 14.4744 5.01231C14.2122 5.01003 13.9596 5.11082 13.771 5.29298L9.189 9.87898C8.62659 10.4416 8.31064 11.2045 8.31064 12C8.31064 12.7955 8.62659 13.5584 9.189 14.121L13.775 18.707C13.9636 18.8891 14.2162 18.9899 14.4784 18.9877C14.7406 18.9854 14.9914 18.8802 15.1768 18.6948C15.3622 18.5094 15.4674 18.2586 15.4697 17.9964C15.472 17.7342 15.3712 17.4816 15.189 17.293L10.6 12.707Z" fill="#161616"/>
</svg>
